solid csg.js
facet normal 0 0 -1
outer loop
vertex 5.975451610080642 9.90392640201615 10
vertex 6.91341716182545 9.619397662556432 10
vertex 7.777851165098009 9.157348061512726 10
endloop
endfacet
facet normal 0 0 -1
outer loop
vertex 5.975451610080642 9.90392640201615 10
vertex 7.777851165098009 9.157348061512726 10
vertex 8.535533905932738 8.535533905932738 10
endloop
endfacet
facet normal 0 0 -1
outer loop
vertex 5.975451610080642 9.90392640201615 10
vertex 8.535533905932738 8.535533905932738 10
vertex 9.157348061512726 7.77785116509801 10
endloop
endfacet
facet normal 0 0 -1
outer loop
vertex 5.975451610080642 9.90392640201615 10
vertex 9.157348061512726 7.77785116509801 10
vertex 9.619397662556432 6.913417161825448 10
endloop
endfacet
facet normal 0 0 -1
outer loop
vertex 5.975451610080642 9.90392640201615 10
vertex 9.619397662556432 6.913417161825448 10
vertex 9.896479729346215 6 10
endloop
endfacet
facet normal 0 0 -1
outer loop
vertex 5.975451610080642 9.90392640201615 10
vertex 9.896479729346215 6 10
vertex 0.10352027065378522 6 10
endloop
endfacet
facet normal 0 0 -1
outer loop
vertex 5.975451610080642 9.90392640201615 10
vertex 0.10352027065378522 6 10
vertex 0.3806023374435661 6.913417161825448 10
endloop
endfacet
facet normal 0 0 -1
outer loop
vertex 5.975451610080642 9.90392640201615 10
vertex 0.3806023374435661 6.913417161825448 10
vertex 0.8426519384872728 7.77785116509801 10
endloop
endfacet
facet normal 0 0 -1
outer loop
vertex 5.975451610080642 9.90392640201615 10
vertex 0.8426519384872728 7.77785116509801 10
vertex 1.4644660940672614 8.535533905932738 10
endloop
endfacet
facet normal 0 0 -1
outer loop
vertex 5.975451610080642 9.90392640201615 10
vertex 1.4644660940672614 8.535533905932738 10
vertex 2.222148834901989 9.157348061512726 10
endloop
endfacet
facet normal 0 0 -1
outer loop
vertex 5.975451610080642 9.90392640201615 10
vertex 2.222148834901989 9.157348061512726 10
vertex 3.0865828381745484 9.619397662556432 10
endloop
endfacet
facet normal 0 0 -1
outer loop
vertex 5.975451610080642 9.90392640201615 10
vertex 3.0865828381745484 9.619397662556432 10
vertex 4.024548389919357 9.90392640201615 10
endloop
endfacet
facet normal 0 0 -1
outer loop
vertex 5.975451610080642 9.90392640201615 10
vertex 4.024548389919357 9.90392640201615 10
vertex 4.999999999999999 10 10
endloop
endfacet
facet normal 0 0 -1
outer loop
vertex 5 6 10
vertex 4.804909677983871 5.98078528040323 10
vertex 0.09769154918765999 5.98078528040323 10
endloop
endfacet
facet normal 0 0 -1
outer loop
vertex 5 6 10
vertex 0.09769154918765999 5.98078528040323 10
vertex 0.10352027065378522 6 10
endloop
endfacet
facet normal 0 0 -1
outer loop
vertex 9.896479729346215 6 10
vertex 9.902308450812338 5.98078528040323 10
vertex 5.195090322016128 5.98078528040323 10
endloop
endfacet
facet normal 0 0 -1
outer loop
vertex 9.896479729346215 6 10
vertex 5.195090322016128 5.98078528040323 10
vertex 5 6 10
endloop
endfacet
facet normal 0 0 -1
outer loop
vertex 4.804909677983871 5.98078528040323 10
vertex 4.6173165676349095 5.923879532511286 10
vertex 0.09099419168999745 5.923879532511286 10
endloop
endfacet
facet normal 0 0 -1
outer loop
vertex 4.804909677983871 5.98078528040323 10
vertex 0.09099419168999745 5.923879532511286 10
vertex 0.09607359798384785 5.975451610080642 10
endloop
endfacet
facet normal 0 0 -1
outer loop
vertex 4.804909677983871 5.98078528040323 10
vertex 0.09607359798384785 5.975451610080642 10
vertex 0.09769154918765999 5.98078528040323 10
endloop
endfacet
facet normal 0 0 -1
outer loop
vertex 9.902308450812338 5.98078528040323 10
vertex 9.90392640201615 5.975451610080642 10
vertex 9.909005808310003 5.923879532511286 10
endloop
endfacet
facet normal 0 0 -1
outer loop
vertex 9.902308450812338 5.98078528040323 10
vertex 9.909005808310003 5.923879532511286 10
vertex 5.38268343236509 5.923879532511286 10
endloop
endfacet
facet normal 0 0 -1
outer loop
vertex 9.902308450812338 5.98078528040323 10
vertex 5.38268343236509 5.923879532511286 10
vertex 5.195090322016128 5.98078528040323 10
endloop
endfacet
facet normal 0 0 -1
outer loop
vertex 4.6173165676349095 5.923879532511286 10
vertex 4.444429766980398 5.831469612302545 10
vertex 0.08189260896451511 5.831469612302545 10
endloop
endfacet
facet normal 0 0 -1
outer loop
vertex 4.6173165676349095 5.923879532511286 10
vertex 0.08189260896451511 5.831469612302545 10
vertex 0.09099419168999745 5.923879532511286 10
endloop
endfacet
facet normal 0 0 -1
outer loop
vertex 9.909005808310003 5.923879532511286 10
vertex 9.918107391035484 5.831469612302545 10
vertex 5.555570233019602 5.831469612302545 10
endloop
endfacet
facet normal 0 0 -1
outer loop
vertex 9.909005808310003 5.923879532511286 10
vertex 5.555570233019602 5.831469612302545 10
vertex 5.38268343236509 5.923879532511286 10
endloop
endfacet
facet normal 0 0 -1
outer loop
vertex 4.444429766980398 5.831469612302545 10
vertex 4.292893218813452 5.707106781186547 10
vertex 0.06964393920243062 5.707106781186547 10
endloop
endfacet
facet normal 0 0 -1
outer loop
vertex 4.444429766980398 5.831469612302545 10
vertex 0.06964393920243062 5.707106781186547 10
vertex 0.08189260896451511 5.831469612302545 10
endloop
endfacet
facet normal 0 0 -1
outer loop
vertex 9.918107391035484 5.831469612302545 10
vertex 9.93035606079757 5.707106781186547 10
vertex 5.707106781186547 5.707106781186547 10
endloop
endfacet
facet normal 0 0 -1
outer loop
vertex 9.918107391035484 5.831469612302545 10
vertex 5.707106781186547 5.707106781186547 10
vertex 5.555570233019602 5.831469612302545 10
endloop
endfacet
facet normal 0 0 -1
outer loop
vertex 4.292893218813452 5.707106781186547 10
vertex 4.168530387697455 5.555570233019602 10
vertex 0.05471889191356727 5.555570233019602 10
endloop
endfacet
facet normal 0 0 -1
outer loop
vertex 4.292893218813452 5.707106781186547 10
vertex 0.05471889191356727 5.555570233019602 10
vertex 0.06964393920243062 5.707106781186547 10
endloop
endfacet
facet normal 0 0 -1
outer loop
vertex 9.93035606079757 5.707106781186547 10
vertex 9.945281108086432 5.555570233019602 10
vertex 5.831469612302545 5.555570233019602 10
endloop
endfacet
facet normal 0 0 -1
outer loop
vertex 9.93035606079757 5.707106781186547 10
vertex 5.831469612302545 5.555570233019602 10
vertex 5.707106781186547 5.707106781186547 10
endloop
endfacet
facet normal 0 0 -1
outer loop
vertex 4.168530387697455 5.555570233019602 10
vertex 4.076120467488713 5.38268343236509 10
vertex 0.0376910282951739 5.38268343236509 10
endloop
endfacet
facet normal 0 0 -1
outer loop
vertex 4.168530387697455 5.555570233019602 10
vertex 0.0376910282951739 5.38268343236509 10
vertex 0.05471889191356727 5.555570233019602 10
endloop
endfacet
facet normal 0 0 -1
outer loop
vertex 9.945281108086432 5.555570233019602 10
vertex 9.962308971704825 5.38268343236509 10
vertex 5.923879532511286 5.38268343236509 10
endloop
endfacet
facet normal 0 0 -1
outer loop
vertex 9.945281108086432 5.555570233019602 10
vertex 5.923879532511286 5.38268343236509 10
vertex 5.831469612302545 5.555570233019602 10
endloop
endfacet
facet normal 0 0 -1
outer loop
vertex 4.076120467488713 5.38268343236509 10
vertex 4.01921471959677 5.195090322016128 10
vertex 0.01921471959676957 5.195090322016128 10
endloop
endfacet
facet normal 0 0 -1
outer loop
vertex 4.076120467488713 5.38268343236509 10
vertex 0.01921471959676957 5.195090322016128 10
vertex 0.0376910282951739 5.38268343236509 10
endloop
endfacet
facet normal 0 0 -1
outer loop
vertex 9.962308971704825 5.38268343236509 10
vertex 9.98078528040323 5.195090322016128 10
vertex 5.98078528040323 5.195090322016128 10
endloop
endfacet
facet normal 0 0 -1
outer loop
vertex 9.962308971704825 5.38268343236509 10
vertex 5.98078528040323 5.195090322016128 10
vertex 5.923879532511286 5.38268343236509 10
endloop
endfacet
facet normal 0 0 -1
outer loop
vertex 4.01921471959677 5.195090322016128 10
vertex 4 5 10
vertex 0 5 10
endloop
endfacet
facet normal 0 0 -1
outer loop
vertex 4.01921471959677 5.195090322016128 10
vertex 0 5 10
vertex 0.01921471959676957 5.195090322016128 10
endloop
endfacet
facet normal 0 0 -1
outer loop
vertex 9.98078528040323 5.195090322016128 10
vertex 10 5 10
vertex 6 5 10
endloop
endfacet
facet normal 0 0 -1
outer loop
vertex 9.98078528040323 5.195090322016128 10
vertex 6 5 10
vertex 5.98078528040323 5.195090322016128 10
endloop
endfacet
facet normal 0 0 -1
outer loop
vertex 4 5 10
vertex 4.01921471959677 4.804909677983872 10
vertex 0.01921471959676957 4.804909677983872 10
endloop
endfacet
facet normal 0 0 -1
outer loop
vertex 4 5 10
vertex 0.01921471959676957 4.804909677983872 10
vertex 0 5 10
endloop
endfacet
facet normal 0 0 -1
outer loop
vertex 10 5 10
vertex 9.98078528040323 4.804909677983872 10
vertex 5.98078528040323 4.804909677983872 10
endloop
endfacet
facet normal 0 0 -1
outer loop
vertex 10 5 10
vertex 5.98078528040323 4.804909677983872 10
vertex 6 5 10
endloop
endfacet
facet normal 0 0 -1
outer loop
vertex 4.01921471959677 4.804909677983872 10
vertex 4.076120467488713 4.61731656763491 10
vertex 0.0376910282951739 4.61731656763491 10
endloop
endfacet
facet normal 0 0 -1
outer loop
vertex 4.01921471959677 4.804909677983872 10
vertex 0.0376910282951739 4.61731656763491 10
vertex 0.01921471959676957 4.804909677983872 10
endloop
endfacet
facet normal 0 0 -1
outer loop
vertex 9.98078528040323 4.804909677983872 10
vertex 9.962308971704825 4.61731656763491 10
vertex 5.923879532511287 4.61731656763491 10
endloop
endfacet
facet normal 0 0 -1
outer loop
vertex 9.98078528040323 4.804909677983872 10
vertex 5.923879532511287 4.61731656763491 10
vertex 5.98078528040323 4.804909677983872 10
endloop
endfacet
facet normal 0 0 -1
outer loop
vertex 4.076120467488713 4.61731656763491 10
vertex 4.168530387697455 4.444429766980398 10
vertex 0.05471889191356727 4.444429766980398 10
endloop
endfacet
facet normal 0 0 -1
outer loop
vertex 4.076120467488713 4.61731656763491 10
vertex 0.05471889191356727 4.444429766980398 10
vertex 0.0376910282951739 4.61731656763491 10
endloop
endfacet
facet normal 0 0 -1
outer loop
vertex 9.962308971704825 4.61731656763491 10
vertex 9.945281108086434 4.444429766980398 10
vertex 5.831469612302545 4.444429766980398 10
endloop
endfacet
facet normal 0 0 -1
outer loop
vertex 9.962308971704825 4.61731656763491 10
vertex 5.831469612302545 4.444429766980398 10
vertex 5.923879532511287 4.61731656763491 10
endloop
endfacet
facet normal 0 0 -1
outer loop
vertex 4.168530387697455 4.444429766980398 10
vertex 4.292893218813452 4.292893218813452 10
vertex 0.06964393920242973 4.292893218813452 10
endloop
endfacet
facet normal 0 0 -1
outer loop
vertex 4.168530387697455 4.444429766980398 10
vertex 0.06964393920242973 4.292893218813452 10
vertex 0.05471889191356727 4.444429766980398 10
endloop
endfacet
facet normal 0 0 -1
outer loop
vertex 9.945281108086434 4.444429766980398 10
vertex 9.93035606079757 4.292893218813452 10
vertex 5.707106781186548 4.292893218813452 10
endloop
endfacet
facet normal 0 0 -1
outer loop
vertex 9.945281108086434 4.444429766980398 10
vertex 5.707106781186548 4.292893218813452 10
vertex 5.831469612302545 4.444429766980398 10
endloop
endfacet
facet normal 0 0 -1
outer loop
vertex 4.292893218813452 4.292893218813452 10
vertex 4.444429766980398 4.168530387697455 10
vertex 0.08189260896451511 4.168530387697455 10
endloop
endfacet
facet normal 0 0 -1
outer loop
vertex 4.292893218813452 4.292893218813452 10
vertex 0.08189260896451511 4.168530387697455 10
vertex 0.06964393920242973 4.292893218813452 10
endloop
endfacet
facet normal 0 0 -1
outer loop
vertex 9.93035606079757 4.292893218813452 10
vertex 9.918107391035484 4.168530387697455 10
vertex 5.555570233019602 4.168530387697455 10
endloop
endfacet
facet normal 0 0 -1
outer loop
vertex 9.93035606079757 4.292893218813452 10
vertex 5.555570233019602 4.168530387697455 10
vertex 5.707106781186548 4.292893218813452 10
endloop
endfacet
facet normal 0 0 -1
outer loop
vertex 4.444429766980398 4.168530387697455 10
vertex 4.61731656763491 4.076120467488713 10
vertex 0.09099419168999745 4.076120467488713 10
endloop
endfacet
facet normal 0 0 -1
outer loop
vertex 4.444429766980398 4.168530387697455 10
vertex 0.09099419168999745 4.076120467488713 10
vertex 0.08189260896451511 4.168530387697455 10
endloop
endfacet
facet normal 0 0 -1
outer loop
vertex 9.918107391035484 4.168530387697455 10
vertex 9.909005808310003 4.076120467488713 10
vertex 5.38268343236509 4.076120467488713 10
endloop
endfacet
facet normal 0 0 -1
outer loop
vertex 9.918107391035484 4.168530387697455 10
vertex 5.38268343236509 4.076120467488713 10
vertex 5.555570233019602 4.168530387697455 10
endloop
endfacet
facet normal 0 0 -1
outer loop
vertex 4.61731656763491 4.076120467488713 10
vertex 4.804909677983872 4.01921471959677 10
vertex 0.09769154918765999 4.01921471959677 10
endloop
endfacet
facet normal 0 0 -1
outer loop
vertex 4.61731656763491 4.076120467488713 10
vertex 0.09769154918765999 4.01921471959677 10
vertex 0.09607359798384785 4.024548389919358 10
endloop
endfacet
facet normal 0 0 -1
outer loop
vertex 4.61731656763491 4.076120467488713 10
vertex 0.09607359798384785 4.024548389919358 10
vertex 0.09099419168999745 4.076120467488713 10
endloop
endfacet
facet normal 0 0 -1
outer loop
vertex 9.909005808310003 4.076120467488713 10
vertex 9.903926402016152 4.024548389919358 10
vertex 9.90230845081234 4.01921471959677 10
endloop
endfacet
facet normal 0 0 -1
outer loop
vertex 9.909005808310003 4.076120467488713 10
vertex 9.90230845081234 4.01921471959677 10
vertex 5.195090322016128 4.01921471959677 10
endloop
endfacet
facet normal 0 0 -1
outer loop
vertex 9.909005808310003 4.076120467488713 10
vertex 5.195090322016128 4.01921471959677 10
vertex 5.38268343236509 4.076120467488713 10
endloop
endfacet
facet normal 0 0 -1
outer loop
vertex 4.804909677983872 4.01921471959677 10
vertex 5 4 10
vertex 0.10352027065378522 4 10
endloop
endfacet
facet normal 0 0 -1
outer loop
vertex 4.804909677983872 4.01921471959677 10
vertex 0.10352027065378522 4 10
vertex 0.09769154918765999 4.01921471959677 10
endloop
endfacet
facet normal 0 0 -1
outer loop
vertex 9.90230845081234 4.01921471959677 10
vertex 9.896479729346215 4 10
vertex 5 4 10
endloop
endfacet
facet normal 0 0 -1
outer loop
vertex 9.90230845081234 4.01921471959677 10
vertex 5 4 10
vertex 5.195090322016128 4.01921471959677 10
endloop
endfacet
facet normal 0 0 -1
outer loop
vertex 9.896479729346215 4 10
vertex 9.619397662556434 3.086582838174551 10
vertex 9.157348061512726 2.222148834901989 10
endloop
endfacet
facet normal 0 0 -1
outer loop
vertex 9.896479729346215 4 10
vertex 9.157348061512726 2.222148834901989 10
vertex 8.535533905932738 1.4644660940672627 10
endloop
endfacet
facet normal 0 0 -1
outer loop
vertex 9.896479729346215 4 10
vertex 8.535533905932738 1.4644660940672627 10
vertex 7.777851165098012 0.8426519384872737 10
endloop
endfacet
facet normal 0 0 -1
outer loop
vertex 9.896479729346215 4 10
vertex 7.777851165098012 0.8426519384872737 10
vertex 6.913417161825449 0.3806023374435661 10
endloop
endfacet
facet normal 0 0 -1
outer loop
vertex 9.896479729346215 4 10
vertex 6.913417161825449 0.3806023374435661 10
vertex 5.975451610080642 0.09607359798384785 10
endloop
endfacet
facet normal 0 0 -1
outer loop
vertex 9.896479729346215 4 10
vertex 5.975451610080642 0.09607359798384785 10
vertex 5 0 10
endloop
endfacet
facet normal 0 0 -1
outer loop
vertex 9.896479729346215 4 10
vertex 5 0 10
vertex 4.024548389919359 0.09607359798384785 10
endloop
endfacet
facet normal 0 0 -1
outer loop
vertex 9.896479729346215 4 10
vertex 4.024548389919359 0.09607359798384785 10
vertex 3.0865828381745515 0.3806023374435661 10
endloop
endfacet
facet normal 0 0 -1
outer loop
vertex 9.896479729346215 4 10
vertex 3.0865828381745515 0.3806023374435661 10
vertex 2.22214883490199 0.8426519384872737 10
endloop
endfacet
facet normal 0 0 -1
outer loop
vertex 9.896479729346215 4 10
vertex 2.22214883490199 0.8426519384872737 10
vertex 1.4644660940672627 1.4644660940672627 10
endloop
endfacet
facet normal 0 0 -1
outer loop
vertex 9.896479729346215 4 10
vertex 1.4644660940672627 1.4644660940672627 10
vertex 0.8426519384872737 2.222148834901989 10
endloop
endfacet
facet normal 0 0 -1
outer loop
vertex 9.896479729346215 4 10
vertex 0.8426519384872737 2.222148834901989 10
vertex 0.3806023374435661 3.086582838174551 10
endloop
endfacet
facet normal 0 0 -1
outer loop
vertex 9.896479729346215 4 10
vertex 0.3806023374435661 3.086582838174551 10
vertex 0.10352027065378522 4 10
endloop
endfacet
facet normal 0.9951847266721969 -0.09801714032955999 0
outer loop
vertex 9.903926402016152 4.024548389919358 10
vertex 10 5 10
vertex 10 5 11
endloop
endfacet
facet normal 0.9951847266721969 -0.09801714032955999 0
outer loop
vertex 9.903926402016152 4.024548389919358 10
vertex 10 5 11
vertex 9.903926402016152 4.024548389919358 11
endloop
endfacet
facet normal 0 0 1
outer loop
vertex 5.975451610080642 0.09607359798384785 11
vertex 6.913417161825449 0.3806023374435661 11
vertex 7.777851165098012 0.8426519384872737 11
endloop
endfacet
facet normal 0 0 1
outer loop
vertex 5.975451610080642 0.09607359798384785 11
vertex 7.777851165098012 0.8426519384872737 11
vertex 8.535533905932738 1.4644660940672627 11
endloop
endfacet
facet normal 0 0 1
outer loop
vertex 5.975451610080642 0.09607359798384785 11
vertex 8.535533905932738 1.4644660940672627 11
vertex 9.157348061512726 2.222148834901989 11
endloop
endfacet
facet normal 0 0 1
outer loop
vertex 5.975451610080642 0.09607359798384785 11
vertex 9.157348061512726 2.222148834901989 11
vertex 9.619397662556434 3.086582838174551 11
endloop
endfacet
facet normal 0 0 1
outer loop
vertex 5.975451610080642 0.09607359798384785 11
vertex 9.619397662556434 3.086582838174551 11
vertex 9.903926402016152 4.024548389919358 11
endloop
endfacet
facet normal 0 0 1
outer loop
vertex 5.975451610080642 0.09607359798384785 11
vertex 9.903926402016152 4.024548389919358 11
vertex 10 5 11
endloop
endfacet
facet normal 0 0 1
outer loop
vertex 5.975451610080642 0.09607359798384785 11
vertex 10 5 11
vertex 9.90392640201615 5.975451610080642 11
endloop
endfacet
facet normal 0 0 1
outer loop
vertex 5.975451610080642 0.09607359798384785 11
vertex 9.90392640201615 5.975451610080642 11
vertex 9.619397662556432 6.913417161825448 11
endloop
endfacet
facet normal 0 0 1
outer loop
vertex 5.975451610080642 0.09607359798384785 11
vertex 9.619397662556432 6.913417161825448 11
vertex 9.157348061512726 7.77785116509801 11
endloop
endfacet
facet normal 0 0 1
outer loop
vertex 5.975451610080642 0.09607359798384785 11
vertex 9.157348061512726 7.77785116509801 11
vertex 8.535533905932738 8.535533905932738 11
endloop
endfacet
facet normal 0 0 1
outer loop
vertex 5.975451610080642 0.09607359798384785 11
vertex 8.535533905932738 8.535533905932738 11
vertex 7.777851165098009 9.157348061512726 11
endloop
endfacet
facet normal 0 0 1
outer loop
vertex 5.975451610080642 0.09607359798384785 11
vertex 7.777851165098009 9.157348061512726 11
vertex 6.91341716182545 9.619397662556432 11
endloop
endfacet
facet normal 0 0 1
outer loop
vertex 5.975451610080642 0.09607359798384785 11
vertex 6.91341716182545 9.619397662556432 11
vertex 5.975451610080642 9.90392640201615 11
endloop
endfacet
facet normal 0 0 1
outer loop
vertex 5.975451610080642 0.09607359798384785 11
vertex 5.975451610080642 9.90392640201615 11
vertex 4.999999999999999 10 11
endloop
endfacet
facet normal 0 0 1
outer loop
vertex 5.975451610080642 0.09607359798384785 11
vertex 4.999999999999999 10 11
vertex 4.024548389919357 9.90392640201615 11
endloop
endfacet
facet normal 0 0 1
outer loop
vertex 5.975451610080642 0.09607359798384785 11
vertex 4.024548389919357 9.90392640201615 11
vertex 3.0865828381745484 9.619397662556432 11
endloop
endfacet
facet normal 0 0 1
outer loop
vertex 5.975451610080642 0.09607359798384785 11
vertex 3.0865828381745484 9.619397662556432 11
vertex 2.222148834901989 9.157348061512726 11
endloop
endfacet
facet normal 0 0 1
outer loop
vertex 5.975451610080642 0.09607359798384785 11
vertex 2.222148834901989 9.157348061512726 11
vertex 1.4644660940672614 8.535533905932738 11
endloop
endfacet
facet normal 0 0 1
outer loop
vertex 5.975451610080642 0.09607359798384785 11
vertex 1.4644660940672614 8.535533905932738 11
vertex 0.8426519384872728 7.77785116509801 11
endloop
endfacet
facet normal 0 0 1
outer loop
vertex 5.975451610080642 0.09607359798384785 11
vertex 0.8426519384872728 7.77785116509801 11
vertex 0.3806023374435661 6.913417161825448 11
endloop
endfacet
facet normal 0 0 1
outer loop
vertex 5.975451610080642 0.09607359798384785 11
vertex 0.3806023374435661 6.913417161825448 11
vertex 0.09607359798384785 5.975451610080642 11
endloop
endfacet
facet normal 0 0 1
outer loop
vertex 5.975451610080642 0.09607359798384785 11
vertex 0.09607359798384785 5.975451610080642 11
vertex 0 5 11
endloop
endfacet
facet normal 0 0 1
outer loop
vertex 5.975451610080642 0.09607359798384785 11
vertex 0 5 11
vertex 0.09607359798384785 4.024548389919358 11
endloop
endfacet
facet normal 0 0 1
outer loop
vertex 5.975451610080642 0.09607359798384785 11
vertex 0.09607359798384785 4.024548389919358 11
vertex 0.3806023374435661 3.086582838174551 11
endloop
endfacet
facet normal 0 0 1
outer loop
vertex 5.975451610080642 0.09607359798384785 11
vertex 0.3806023374435661 3.086582838174551 11
vertex 0.8426519384872737 2.222148834901989 11
endloop
endfacet
facet normal 0 0 1
outer loop
vertex 5.975451610080642 0.09607359798384785 11
vertex 0.8426519384872737 2.222148834901989 11
vertex 1.4644660940672627 1.4644660940672627 11
endloop
endfacet
facet normal 0 0 1
outer loop
vertex 5.975451610080642 0.09607359798384785 11
vertex 1.4644660940672627 1.4644660940672627 11
vertex 2.22214883490199 0.8426519384872737 11
endloop
endfacet
facet normal 0 0 1
outer loop
vertex 5.975451610080642 0.09607359798384785 11
vertex 2.22214883490199 0.8426519384872737 11
vertex 3.0865828381745515 0.3806023374435661 11
endloop
endfacet
facet normal 0 0 1
outer loop
vertex 5.975451610080642 0.09607359798384785 11
vertex 3.0865828381745515 0.3806023374435661 11
vertex 4.024548389919359 0.09607359798384785 11
endloop
endfacet
facet normal 0 0 1
outer loop
vertex 5.975451610080642 0.09607359798384785 11
vertex 4.024548389919359 0.09607359798384785 11
vertex 5 0 11
endloop
endfacet
facet normal 0.956940335732209 -0.29028467725446205 0
outer loop
vertex 9.619397662556434 3.086582838174551 10
vertex 9.903926402016152 4.024548389919358 10
vertex 9.903926402016152 4.024548389919358 11
endloop
endfacet
facet normal 0.956940335732209 -0.29028467725446205 0
outer loop
vertex 9.619397662556434 3.086582838174551 10
vertex 9.903926402016152 4.024548389919358 11
vertex 9.619397662556434 3.086582838174551 11
endloop
endfacet
facet normal 0.8819212643483548 -0.4713967368259981 0
outer loop
vertex 9.157348061512726 2.222148834901989 10
vertex 9.619397662556434 3.086582838174551 10
vertex 9.619397662556434 3.086582838174551 11
endloop
endfacet
facet normal 0.8819212643483548 -0.4713967368259981 0
outer loop
vertex 9.157348061512726 2.222148834901989 10
vertex 9.619397662556434 3.086582838174551 11
vertex 9.157348061512726 2.222148834901989 11
endloop
endfacet
facet normal 0.7730104533627373 -0.6343932841636453 0
outer loop
vertex 8.535533905932738 1.4644660940672627 10
vertex 9.157348061512726 2.222148834901989 10
vertex 9.157348061512726 2.222148834901989 11
endloop
endfacet
facet normal 0.7730104533627373 -0.6343932841636453 0
outer loop
vertex 8.535533905932738 1.4644660940672627 10
vertex 9.157348061512726 2.222148834901989 11
vertex 8.535533905932738 1.4644660940672627 11
endloop
endfacet
facet normal 0.6343932841636463 -0.7730104533627364 0
outer loop
vertex 7.777851165098012 0.8426519384872737 10
vertex 8.535533905932738 1.4644660940672627 10
vertex 8.535533905932738 1.4644660940672627 11
endloop
endfacet
facet normal 0.6343932841636463 -0.7730104533627364 0
outer loop
vertex 7.777851165098012 0.8426519384872737 10
vertex 8.535533905932738 1.4644660940672627 11
vertex 7.777851165098012 0.8426519384872737 11
endloop
endfacet
facet normal 0.4713967368259979 -0.8819212643483549 0
outer loop
vertex 6.913417161825449 0.3806023374435661 10
vertex 7.777851165098012 0.8426519384872737 10
vertex 7.777851165098012 0.8426519384872737 11
endloop
endfacet
facet normal 0.4713967368259979 -0.8819212643483549 0
outer loop
vertex 6.913417161825449 0.3806023374435661 10
vertex 7.777851165098012 0.8426519384872737 11
vertex 6.913417161825449 0.3806023374435661 11
endloop
endfacet
facet normal 0.2902846772544623 -0.9569403357322089 0
outer loop
vertex 5.975451610080642 0.09607359798384785 10
vertex 6.913417161825449 0.3806023374435661 10
vertex 6.913417161825449 0.3806023374435661 11
endloop
endfacet
facet normal 0.2902846772544623 -0.9569403357322089 0
outer loop
vertex 5.975451610080642 0.09607359798384785 10
vertex 6.913417161825449 0.3806023374435661 11
vertex 5.975451610080642 0.09607359798384785 11
endloop
endfacet
facet normal 0.09801714032956099 -0.9951847266721969 0
outer loop
vertex 5 0 10
vertex 5.975451610080642 0.09607359798384785 10
vertex 5.975451610080642 0.09607359798384785 11
endloop
endfacet
facet normal 0.09801714032956099 -0.9951847266721969 0
outer loop
vertex 5 0 10
vertex 5.975451610080642 0.09607359798384785 11
vertex 5 0 11
endloop
endfacet
facet normal -0.09801714032956088 -0.9951847266721969 0
outer loop
vertex 4.024548389919359 0.09607359798384785 10
vertex 5 0 10
vertex 5 0 11
endloop
endfacet
facet normal -0.09801714032956088 -0.9951847266721969 0
outer loop
vertex 4.024548389919359 0.09607359798384785 10
vertex 5 0 11
vertex 4.024548389919359 0.09607359798384785 11
endloop
endfacet
facet normal -0.2902846772544623 -0.9569403357322089 0
outer loop
vertex 3.0865828381745515 0.3806023374435661 10
vertex 4.024548389919359 0.09607359798384785 10
vertex 4.024548389919359 0.09607359798384785 11
endloop
endfacet
facet normal -0.2902846772544623 -0.9569403357322089 0
outer loop
vertex 3.0865828381745515 0.3806023374435661 10
vertex 4.024548389919359 0.09607359798384785 11
vertex 3.0865828381745515 0.3806023374435661 11
endloop
endfacet
facet normal -0.4713967368259975 -0.8819212643483552 0
outer loop
vertex 2.22214883490199 0.8426519384872737 10
vertex 3.0865828381745515 0.3806023374435661 10
vertex 3.0865828381745515 0.3806023374435661 11
endloop
endfacet
facet normal -0.4713967368259975 -0.8819212643483552 0
outer loop
vertex 2.22214883490199 0.8426519384872737 10
vertex 3.0865828381745515 0.3806023374435661 11
vertex 2.22214883490199 0.8426519384872737 11
endloop
endfacet
facet normal -0.6343932841636457 -0.7730104533627369 0
outer loop
vertex 1.4644660940672627 1.4644660940672627 10
vertex 2.22214883490199 0.8426519384872737 10
vertex 2.22214883490199 0.8426519384872737 11
endloop
endfacet
facet normal -0.6343932841636457 -0.7730104533627369 0
outer loop
vertex 1.4644660940672627 1.4644660940672627 10
vertex 2.22214883490199 0.8426519384872737 11
vertex 1.4644660940672627 1.4644660940672627 11
endloop
endfacet
facet normal -0.7730104533627371 -0.6343932841636454 0
outer loop
vertex 0.8426519384872737 2.222148834901989 10
vertex 1.4644660940672627 1.4644660940672627 10
vertex 1.4644660940672627 1.4644660940672627 11
endloop
endfacet
facet normal -0.7730104533627371 -0.6343932841636454 0
outer loop
vertex 0.8426519384872737 2.222148834901989 10
vertex 1.4644660940672627 1.4644660940672627 11
vertex 0.8426519384872737 2.222148834901989 11
endloop
endfacet
facet normal -0.8819212643483549 -0.471396736825998 0
outer loop
vertex 0.3806023374435661 3.086582838174551 10
vertex 0.8426519384872737 2.222148834901989 10
vertex 0.8426519384872737 2.222148834901989 11
endloop
endfacet
facet normal -0.8819212643483549 -0.471396736825998 0
outer loop
vertex 0.3806023374435661 3.086582838174551 10
vertex 0.8426519384872737 2.222148834901989 11
vertex 0.3806023374435661 3.086582838174551 11
endloop
endfacet
facet normal -0.9569403357322088 -0.2902846772544627 0
outer loop
vertex 0.09607359798384785 4.024548389919358 10
vertex 0.3806023374435661 3.086582838174551 10
vertex 0.3806023374435661 3.086582838174551 11
endloop
endfacet
facet normal -0.9569403357322088 -0.2902846772544627 0
outer loop
vertex 0.09607359798384785 4.024548389919358 10
vertex 0.3806023374435661 3.086582838174551 11
vertex 0.09607359798384785 4.024548389919358 11
endloop
endfacet
facet normal -0.9951847266721969 -0.09801714032956094 0
outer loop
vertex 0 5 10
vertex 0.09607359798384785 4.024548389919358 10
vertex 0.09607359798384785 4.024548389919358 11
endloop
endfacet
facet normal -0.9951847266721969 -0.09801714032956094 0
outer loop
vertex 0 5 10
vertex 0.09607359798384785 4.024548389919358 11
vertex 0 5 11
endloop
endfacet
facet normal -0.9951847266721968 0.09801714032956088 0
outer loop
vertex 0.09607359798384785 5.975451610080642 10
vertex 0 5 10
vertex 0 5 11
endloop
endfacet
facet normal -0.9951847266721968 0.09801714032956088 0
outer loop
vertex 0.09607359798384785 5.975451610080642 10
vertex 0 5 11
vertex 0.09607359798384785 5.975451610080642 11
endloop
endfacet
facet normal -0.9569403357322089 0.29028467725446205 0
outer loop
vertex 0.3806023374435661 6.913417161825448 10
vertex 0.09607359798384785 5.975451610080642 10
vertex 0.09607359798384785 5.975451610080642 11
endloop
endfacet
facet normal -0.9569403357322089 0.29028467725446205 0
outer loop
vertex 0.3806023374435661 6.913417161825448 10
vertex 0.09607359798384785 5.975451610080642 11
vertex 0.3806023374435661 6.913417161825448 11
endloop
endfacet
facet normal -0.8819212643483555 0.4713967368259968 0
outer loop
vertex 0.8426519384872728 7.77785116509801 10
vertex 0.3806023374435661 6.913417161825448 10
vertex 0.3806023374435661 6.913417161825448 11
endloop
endfacet
facet normal -0.8819212643483555 0.4713967368259968 0
outer loop
vertex 0.8426519384872728 7.77785116509801 10
vertex 0.3806023374435661 6.913417161825448 11
vertex 0.8426519384872728 7.77785116509801 11
endloop
endfacet
facet normal -0.7730104533627371 0.6343932841636454 0
outer loop
vertex 1.4644660940672614 8.535533905932738 10
vertex 0.8426519384872728 7.77785116509801 10
vertex 0.8426519384872728 7.77785116509801 11
endloop
endfacet
facet normal -0.7730104533627371 0.6343932841636454 0
outer loop
vertex 1.4644660940672614 8.535533905932738 10
vertex 0.8426519384872728 7.77785116509801 11
vertex 1.4644660940672614 8.535533905932738 11
endloop
endfacet
facet normal -0.6343932841636449 0.7730104533627375 0
outer loop
vertex 2.222148834901989 9.157348061512726 10
vertex 1.4644660940672614 8.535533905932738 10
vertex 1.4644660940672614 8.535533905932738 11
endloop
endfacet
facet normal -0.6343932841636449 0.7730104533627375 0
outer loop
vertex 2.222148834901989 9.157348061512726 10
vertex 1.4644660940672614 8.535533905932738 11
vertex 2.222148834901989 9.157348061512726 11
endloop
endfacet
facet normal -0.4713967368259979 0.8819212643483549 0
outer loop
vertex 3.0865828381745484 9.619397662556432 10
vertex 2.222148834901989 9.157348061512726 10
vertex 2.222148834901989 9.157348061512726 11
endloop
endfacet
facet normal -0.4713967368259979 0.8819212643483549 0
outer loop
vertex 3.0865828381745484 9.619397662556432 10
vertex 2.222148834901989 9.157348061512726 11
vertex 3.0865828381745484 9.619397662556432 11
endloop
endfacet
facet normal -0.29028467725446205 0.956940335732209 0
outer loop
vertex 4.024548389919357 9.90392640201615 10
vertex 3.0865828381745484 9.619397662556432 10
vertex 3.0865828381745484 9.619397662556432 11
endloop
endfacet
facet normal -0.29028467725446205 0.956940335732209 0
outer loop
vertex 4.024548389919357 9.90392640201615 10
vertex 3.0865828381745484 9.619397662556432 11
vertex 4.024548389919357 9.90392640201615 11
endloop
endfacet
facet normal -0.09801714032956177 0.9951847266721968 0
outer loop
vertex 4.999999999999999 10 10
vertex 4.024548389919357 9.90392640201615 10
vertex 4.024548389919357 9.90392640201615 11
endloop
endfacet
facet normal -0.09801714032956177 0.9951847266721968 0
outer loop
vertex 4.999999999999999 10 10
vertex 4.024548389919357 9.90392640201615 11
vertex 4.999999999999999 10 11
endloop
endfacet
facet normal 0.09801714032955997 0.9951847266721969 0
outer loop
vertex 5.975451610080642 9.90392640201615 10
vertex 4.999999999999999 10 10
vertex 4.999999999999999 10 11
endloop
endfacet
facet normal 0.09801714032955997 0.9951847266721969 0
outer loop
vertex 5.975451610080642 9.90392640201615 10
vertex 4.999999999999999 10 11
vertex 5.975451610080642 9.90392640201615 11
endloop
endfacet
facet normal 0.29028467725446216 0.9569403357322089 0
outer loop
vertex 6.91341716182545 9.619397662556432 10
vertex 5.975451610080642 9.90392640201615 10
vertex 5.975451610080642 9.90392640201615 11
endloop
endfacet
facet normal 0.29028467725446216 0.9569403357322089 0
outer loop
vertex 6.91341716182545 9.619397662556432 10
vertex 5.975451610080642 9.90392640201615 11
vertex 6.91341716182545 9.619397662556432 11
endloop
endfacet
facet normal 0.4713967368259979 0.8819212643483549 0
outer loop
vertex 7.777851165098009 9.157348061512726 10
vertex 6.91341716182545 9.619397662556432 10
vertex 6.91341716182545 9.619397662556432 11
endloop
endfacet
facet normal 0.4713967368259979 0.8819212643483549 0
outer loop
vertex 7.777851165098009 9.157348061512726 10
vertex 6.91341716182545 9.619397662556432 11
vertex 7.777851165098009 9.157348061512726 11
endloop
endfacet
facet normal 0.6343932841636452 0.7730104533627373 0
outer loop
vertex 8.535533905932738 8.535533905932738 10
vertex 7.777851165098009 9.157348061512726 10
vertex 7.777851165098009 9.157348061512726 11
endloop
endfacet
facet normal 0.6343932841636452 0.7730104533627373 0
outer loop
vertex 8.535533905932738 8.535533905932738 10
vertex 7.777851165098009 9.157348061512726 11
vertex 8.535533905932738 8.535533905932738 11
endloop
endfacet
facet normal 0.7730104533627373 0.6343932841636452 0
outer loop
vertex 9.157348061512726 7.77785116509801 10
vertex 8.535533905932738 8.535533905932738 10
vertex 8.535533905932738 8.535533905932738 11
endloop
endfacet
facet normal 0.7730104533627373 0.6343932841636452 0
outer loop
vertex 9.157348061512726 7.77785116509801 10
vertex 8.535533905932738 8.535533905932738 11
vertex 9.157348061512726 7.77785116509801 11
endloop
endfacet
facet normal 0.8819212643483549 0.4713967368259979 0
outer loop
vertex 9.619397662556432 6.913417161825448 10
vertex 9.157348061512726 7.77785116509801 10
vertex 9.157348061512726 7.77785116509801 11
endloop
endfacet
facet normal 0.8819212643483549 0.4713967368259979 0
outer loop
vertex 9.619397662556432 6.913417161825448 10
vertex 9.157348061512726 7.77785116509801 11
vertex 9.619397662556432 6.913417161825448 11
endloop
endfacet
facet normal 0.956940335732209 0.29028467725446205 0
outer loop
vertex 9.90392640201615 5.975451610080642 10
vertex 9.619397662556432 6.913417161825448 10
vertex 9.619397662556432 6.913417161825448 11
endloop
endfacet
facet normal 0.956940335732209 0.29028467725446205 0
outer loop
vertex 9.90392640201615 5.975451610080642 10
vertex 9.619397662556432 6.913417161825448 11
vertex 9.90392640201615 5.975451610080642 11
endloop
endfacet
facet normal 0.9951847266721968 0.09801714032956177 0
outer loop
vertex 10 5 10
vertex 9.90392640201615 5.975451610080642 10
vertex 9.90392640201615 5.975451610080642 11
endloop
endfacet
facet normal 0.9951847266721968 0.09801714032956177 0
outer loop
vertex 10 5 10
vertex 9.90392640201615 5.975451610080642 11
vertex 10 5 11
endloop
endfacet
facet normal 0 0 -1
outer loop
vertex 5.195090322016128 5.98078528040323 0
vertex 5.38268343236509 5.923879532511286 0
vertex 5.555570233019602 5.831469612302545 0
endloop
endfacet
facet normal 0 0 -1
outer loop
vertex 5.195090322016128 5.98078528040323 0
vertex 5.555570233019602 5.831469612302545 0
vertex 5.707106781186547 5.707106781186548 0
endloop
endfacet
facet normal 0 0 -1
outer loop
vertex 5.195090322016128 5.98078528040323 0
vertex 5.707106781186547 5.707106781186548 0
vertex 5.831469612302545 5.555570233019602 0
endloop
endfacet
facet normal 0 0 -1
outer loop
vertex 5.195090322016128 5.98078528040323 0
vertex 5.831469612302545 5.555570233019602 0
vertex 5.923879532511286 5.38268343236509 0
endloop
endfacet
facet normal 0 0 -1
outer loop
vertex 5.195090322016128 5.98078528040323 0
vertex 5.923879532511286 5.38268343236509 0
vertex 5.98078528040323 5.195090322016128 0
endloop
endfacet
facet normal 0 0 -1
outer loop
vertex 5.195090322016128 5.98078528040323 0
vertex 5.98078528040323 5.195090322016128 0
vertex 6 5 0
endloop
endfacet
facet normal 0 0 -1
outer loop
vertex 5.195090322016128 5.98078528040323 0
vertex 6 5 0
vertex 5.98078528040323 4.804909677983872 0
endloop
endfacet
facet normal 0 0 -1
outer loop
vertex 5.195090322016128 5.98078528040323 0
vertex 5.98078528040323 4.804909677983872 0
vertex 5.923879532511287 4.61731656763491 0
endloop
endfacet
facet normal 0 0 -1
outer loop
vertex 5.195090322016128 5.98078528040323 0
vertex 5.923879532511287 4.61731656763491 0
vertex 5.831469612302545 4.444429766980398 0
endloop
endfacet
facet normal 0 0 -1
outer loop
vertex 5.195090322016128 5.98078528040323 0
vertex 5.831469612302545 4.444429766980398 0
vertex 5.707106781186548 4.292893218813452 0
endloop
endfacet
facet normal 0 0 -1
outer loop
vertex 5.195090322016128 5.98078528040323 0
vertex 5.707106781186548 4.292893218813452 0
vertex 5.555570233019602 4.168530387697455 0
endloop
endfacet
facet normal 0 0 -1
outer loop
vertex 5.195090322016128 5.98078528040323 0
vertex 5.555570233019602 4.168530387697455 0
vertex 5.38268343236509 4.076120467488713 0
endloop
endfacet
facet normal 0 0 -1
outer loop
vertex 5.195090322016128 5.98078528040323 0
vertex 5.38268343236509 4.076120467488713 0
vertex 5.195090322016128 4.01921471959677 0
endloop
endfacet
facet normal 0 0 -1
outer loop
vertex 5.195090322016128 5.98078528040323 0
vertex 5.195090322016128 4.01921471959677 0
vertex 5 4 0
endloop
endfacet
facet normal 0 0 -1
outer loop
vertex 5.195090322016128 5.98078528040323 0
vertex 5 4 0
vertex 4.804909677983872 4.01921471959677 0
endloop
endfacet
facet normal 0 0 -1
outer loop
vertex 5.195090322016128 5.98078528040323 0
vertex 4.804909677983872 4.01921471959677 0
vertex 4.61731656763491 4.076120467488713 0
endloop
endfacet
facet normal 0 0 -1
outer loop
vertex 5.195090322016128 5.98078528040323 0
vertex 4.61731656763491 4.076120467488713 0
vertex 4.444429766980398 4.168530387697455 0
endloop
endfacet
facet normal 0 0 -1
outer loop
vertex 5.195090322016128 5.98078528040323 0
vertex 4.444429766980398 4.168530387697455 0
vertex 4.292893218813452 4.292893218813452 0
endloop
endfacet
facet normal 0 0 -1
outer loop
vertex 5.195090322016128 5.98078528040323 0
vertex 4.292893218813452 4.292893218813452 0
vertex 4.168530387697455 4.444429766980398 0
endloop
endfacet
facet normal 0 0 -1
outer loop
vertex 5.195090322016128 5.98078528040323 0
vertex 4.168530387697455 4.444429766980398 0
vertex 4.076120467488713 4.61731656763491 0
endloop
endfacet
facet normal 0 0 -1
outer loop
vertex 5.195090322016128 5.98078528040323 0
vertex 4.076120467488713 4.61731656763491 0
vertex 4.01921471959677 4.804909677983872 0
endloop
endfacet
facet normal 0 0 -1
outer loop
vertex 5.195090322016128 5.98078528040323 0
vertex 4.01921471959677 4.804909677983872 0
vertex 4 5 0
endloop
endfacet
facet normal 0 0 -1
outer loop
vertex 5.195090322016128 5.98078528040323 0
vertex 4 5 0
vertex 4.01921471959677 5.195090322016128 0
endloop
endfacet
facet normal 0 0 -1
outer loop
vertex 5.195090322016128 5.98078528040323 0
vertex 4.01921471959677 5.195090322016128 0
vertex 4.076120467488713 5.38268343236509 0
endloop
endfacet
facet normal 0 0 -1
outer loop
vertex 5.195090322016128 5.98078528040323 0
vertex 4.076120467488713 5.38268343236509 0
vertex 4.168530387697454 5.555570233019602 0
endloop
endfacet
facet normal 0 0 -1
outer loop
vertex 5.195090322016128 5.98078528040323 0
vertex 4.168530387697454 5.555570233019602 0
vertex 4.292893218813452 5.707106781186548 0
endloop
endfacet
facet normal 0 0 -1
outer loop
vertex 5.195090322016128 5.98078528040323 0
vertex 4.292893218813452 5.707106781186548 0
vertex 4.444429766980398 5.831469612302545 0
endloop
endfacet
facet normal 0 0 -1
outer loop
vertex 5.195090322016128 5.98078528040323 0
vertex 4.444429766980398 5.831469612302545 0
vertex 4.6173165676349095 5.923879532511286 0
endloop
endfacet
facet normal 0 0 -1
outer loop
vertex 5.195090322016128 5.98078528040323 0
vertex 4.6173165676349095 5.923879532511286 0
vertex 4.804909677983871 5.98078528040323 0
endloop
endfacet
facet normal 0 0 -1
outer loop
vertex 5.195090322016128 5.98078528040323 0
vertex 4.804909677983871 5.98078528040323 0
vertex 5 6 0
endloop
endfacet
facet normal 0.9951847266721969 -0.0980171403295609 0
outer loop
vertex 5.98078528040323 4.804909677983872 0
vertex 6 5 0
vertex 6 5 10
endloop
endfacet
facet normal 0.9951847266721969 -0.0980171403295609 0
outer loop
vertex 5.98078528040323 4.804909677983872 0
vertex 6 5 10
vertex 5.98078528040323 4.804909677983872 10
endloop
endfacet
facet normal 0.9569403357322088 -0.29028467725446294 0
outer loop
vertex 5.923879532511287 4.61731656763491 0
vertex 5.98078528040323 4.804909677983872 0
vertex 5.98078528040323 4.804909677983872 10
endloop
endfacet
facet normal 0.9569403357322088 -0.29028467725446294 0
outer loop
vertex 5.923879532511287 4.61731656763491 0
vertex 5.98078528040323 4.804909677983872 10
vertex 5.923879532511287 4.61731656763491 10
endloop
endfacet
facet normal 0.8819212643483549 -0.47139673682599803 0
outer loop
vertex 5.831469612302545 4.444429766980398 0
vertex 5.923879532511287 4.61731656763491 0
vertex 5.923879532511287 4.61731656763491 10
endloop
endfacet
facet normal 0.8819212643483549 -0.47139673682599803 0
outer loop
vertex 5.831469612302545 4.444429766980398 0
vertex 5.923879532511287 4.61731656763491 10
vertex 5.831469612302545 4.444429766980398 10
endloop
endfacet
facet normal 0.7730104533627369 -0.6343932841636457 0
outer loop
vertex 5.707106781186548 4.292893218813452 0
vertex 5.831469612302545 4.444429766980398 0
vertex 5.831469612302545 4.444429766980398 10
endloop
endfacet
facet normal 0.7730104533627369 -0.6343932841636457 0
outer loop
vertex 5.707106781186548 4.292893218813452 0
vertex 5.831469612302545 4.444429766980398 10
vertex 5.707106781186548 4.292893218813452 10
endloop
endfacet
facet normal 0.6343932841636457 -0.7730104533627369 0
outer loop
vertex 5.555570233019602 4.168530387697455 0
vertex 5.707106781186548 4.292893218813452 0
vertex 5.707106781186548 4.292893218813452 10
endloop
endfacet
facet normal 0.6343932841636457 -0.7730104533627369 0
outer loop
vertex 5.555570233019602 4.168530387697455 0
vertex 5.707106781186548 4.292893218813452 10
vertex 5.555570233019602 4.168530387697455 10
endloop
endfacet
facet normal 0.4713967368259969 -0.8819212643483555 0
outer loop
vertex 5.38268343236509 4.076120467488713 0
vertex 5.555570233019602 4.168530387697455 0
vertex 5.555570233019602 4.168530387697455 10
endloop
endfacet
facet normal 0.4713967368259969 -0.8819212643483555 0
outer loop
vertex 5.38268343236509 4.076120467488713 0
vertex 5.555570233019602 4.168530387697455 10
vertex 5.38268343236509 4.076120467488713 10
endloop
endfacet
facet normal 0.29028467725446205 -0.9569403357322089 0
outer loop
vertex 5.195090322016128 4.01921471959677 0
vertex 5.38268343236509 4.076120467488713 0
vertex 5.38268343236509 4.076120467488713 10
endloop
endfacet
facet normal 0.29028467725446205 -0.9569403357322089 0
outer loop
vertex 5.195090322016128 4.01921471959677 0
vertex 5.38268343236509 4.076120467488713 10
vertex 5.195090322016128 4.01921471959677 10
endloop
endfacet
facet normal 0.09801714032956088 -0.9951847266721968 0
outer loop
vertex 5 4 0
vertex 5.195090322016128 4.01921471959677 0
vertex 5.195090322016128 4.01921471959677 10
endloop
endfacet
facet normal 0.09801714032956088 -0.9951847266721968 0
outer loop
vertex 5 4 0
vertex 5.195090322016128 4.01921471959677 10
vertex 5 4 10
endloop
endfacet
facet normal -0.0980171403295609 -0.9951847266721969 0
outer loop
vertex 4.804909677983872 4.01921471959677 0
vertex 5 4 0
vertex 5 4 10
endloop
endfacet
facet normal -0.0980171403295609 -0.9951847266721969 0
outer loop
vertex 4.804909677983872 4.01921471959677 0
vertex 5 4 10
vertex 4.804909677983872 4.01921471959677 10
endloop
endfacet
facet normal -0.29028467725446294 -0.9569403357322088 0
outer loop
vertex 4.61731656763491 4.076120467488713 0
vertex 4.804909677983872 4.01921471959677 0
vertex 4.804909677983872 4.01921471959677 10
endloop
endfacet
facet normal -0.29028467725446294 -0.9569403357322088 0
outer loop
vertex 4.61731656763491 4.076120467488713 0
vertex 4.804909677983872 4.01921471959677 10
vertex 4.61731656763491 4.076120467488713 10
endloop
endfacet
facet normal -0.47139673682599703 -0.8819212643483554 0
outer loop
vertex 4.444429766980398 4.168530387697455 0
vertex 4.61731656763491 4.076120467488713 0
vertex 4.61731656763491 4.076120467488713 10
endloop
endfacet
facet normal -0.47139673682599703 -0.8819212643483554 0
outer loop
vertex 4.444429766980398 4.168530387697455 0
vertex 4.61731656763491 4.076120467488713 10
vertex 4.444429766980398 4.168530387697455 10
endloop
endfacet
facet normal -0.6343932841636457 -0.7730104533627369 0
outer loop
vertex 4.292893218813452 4.292893218813452 0
vertex 4.444429766980398 4.168530387697455 0
vertex 4.444429766980398 4.168530387697455 10
endloop
endfacet
facet normal -0.6343932841636457 -0.7730104533627369 0
outer loop
vertex 4.292893218813452 4.292893218813452 0
vertex 4.444429766980398 4.168530387697455 10
vertex 4.292893218813452 4.292893218813452 10
endloop
endfacet
facet normal -0.7730104533627367 -0.6343932841636459 0
outer loop
vertex 4.168530387697455 4.444429766980398 0
vertex 4.292893218813452 4.292893218813452 0
vertex 4.292893218813452 4.292893218813452 10
endloop
endfacet
facet normal -0.7730104533627367 -0.6343932841636459 0
outer loop
vertex 4.168530387697455 4.444429766980398 0
vertex 4.292893218813452 4.292893218813452 10
vertex 4.168530387697455 4.444429766980398 10
endloop
endfacet
facet normal -0.8819212643483554 -0.47139673682599703 0
outer loop
vertex 4.076120467488713 4.61731656763491 0
vertex 4.168530387697455 4.444429766980398 0
vertex 4.168530387697455 4.444429766980398 10
endloop
endfacet
facet normal -0.8819212643483554 -0.47139673682599703 0
outer loop
vertex 4.076120467488713 4.61731656763491 0
vertex 4.168530387697455 4.444429766980398 10
vertex 4.076120467488713 4.61731656763491 10
endloop
endfacet
facet normal -0.9569403357322087 -0.29028467725446294 0
outer loop
vertex 4.01921471959677 4.804909677983872 0
vertex 4.076120467488713 4.61731656763491 0
vertex 4.076120467488713 4.61731656763491 10
endloop
endfacet
facet normal -0.9569403357322087 -0.29028467725446294 0
outer loop
vertex 4.01921471959677 4.804909677983872 0
vertex 4.076120467488713 4.61731656763491 10
vertex 4.01921471959677 4.804909677983872 10
endloop
endfacet
facet normal -0.9951847266721969 -0.09801714032956088 0
outer loop
vertex 4 5 0
vertex 4.01921471959677 4.804909677983872 0
vertex 4.01921471959677 4.804909677983872 10
endloop
endfacet
facet normal -0.9951847266721969 -0.09801714032956088 0
outer loop
vertex 4 5 0
vertex 4.01921471959677 4.804909677983872 10
vertex 4 5 10
endloop
endfacet
facet normal -0.9951847266721969 0.0980171403295609 0
outer loop
vertex 4.01921471959677 5.195090322016128 0
vertex 4 5 0
vertex 4 5 10
endloop
endfacet
facet normal -0.9951847266721969 0.0980171403295609 0
outer loop
vertex 4.01921471959677 5.195090322016128 0
vertex 4 5 10
vertex 4.01921471959677 5.195090322016128 10
endloop
endfacet
facet normal -0.9569403357322089 0.29028467725446205 0
outer loop
vertex 4.076120467488713 5.38268343236509 0
vertex 4.01921471959677 5.195090322016128 0
vertex 4.01921471959677 5.195090322016128 10
endloop
endfacet
facet normal -0.9569403357322089 0.29028467725446205 0
outer loop
vertex 4.076120467488713 5.38268343236509 0
vertex 4.01921471959677 5.195090322016128 10
vertex 4.076120467488713 5.38268343236509 10
endloop
endfacet
facet normal -0.8819212643483552 0.4713967368259974 0
outer loop
vertex 4.168530387697454 5.555570233019602 0
vertex 4.076120467488713 5.38268343236509 0
vertex 4.076120467488713 5.38268343236509 10
endloop
endfacet
facet normal -0.8819212643483552 0.4713967368259974 0
outer loop
vertex 4.168530387697454 5.555570233019602 0
vertex 4.076120467488713 5.38268343236509 10
vertex 4.168530387697455 5.555570233019602 10
endloop
endfacet
facet normal -0.7730104533627375 0.6343932841636447 0
outer loop
vertex 4.292893218813452 5.707106781186548 0
vertex 4.168530387697454 5.555570233019602 0
vertex 4.168530387697455 5.555570233019602 10
endloop
endfacet
facet normal -0.7730104533627375 0.6343932841636447 0
outer loop
vertex 4.292893218813452 5.707106781186548 0
vertex 4.168530387697455 5.555570233019602 10
vertex 4.292893218813452 5.707106781186547 10
endloop
endfacet
facet normal -0.6343932841636457 0.7730104533627369 0
outer loop
vertex 4.444429766980398 5.831469612302545 0
vertex 4.292893218813452 5.707106781186548 0
vertex 4.292893218813452 5.707106781186547 10
endloop
endfacet
facet normal -0.6343932841636457 0.7730104533627369 0
outer loop
vertex 4.444429766980398 5.831469612302545 0
vertex 4.292893218813452 5.707106781186547 10
vertex 4.444429766980398 5.831469612302545 10
endloop
endfacet
facet normal -0.4713967368259979 0.8819212643483549 0
outer loop
vertex 4.6173165676349095 5.923879532511286 0
vertex 4.444429766980398 5.831469612302545 0
vertex 4.444429766980398 5.831469612302545 10
endloop
endfacet
facet normal -0.4713967368259979 0.8819212643483549 0
outer loop
vertex 4.6173165676349095 5.923879532511286 0
vertex 4.444429766980398 5.831469612302545 10
vertex 4.6173165676349095 5.923879532511286 10
endloop
endfacet
facet normal -0.29028467725446294 0.9569403357322088 0
outer loop
vertex 4.804909677983871 5.98078528040323 0
vertex 4.6173165676349095 5.923879532511286 0
vertex 4.6173165676349095 5.923879532511286 10
endloop
endfacet
facet normal -0.29028467725446294 0.9569403357322088 0
outer loop
vertex 4.804909677983871 5.98078528040323 0
vertex 4.6173165676349095 5.923879532511286 10
vertex 4.804909677983871 5.98078528040323 10
endloop
endfacet
facet normal -0.09801714032956088 0.9951847266721969 0
outer loop
vertex 5 6 0
vertex 4.804909677983871 5.98078528040323 0
vertex 4.804909677983871 5.98078528040323 10
endloop
endfacet
facet normal -0.09801714032956088 0.9951847266721969 0
outer loop
vertex 5 6 0
vertex 4.804909677983871 5.98078528040323 10
vertex 5 6 10
endloop
endfacet
facet normal 0.09801714032956088 0.9951847266721969 0
outer loop
vertex 5.195090322016128 5.98078528040323 0
vertex 5 6 0
vertex 5 6 10
endloop
endfacet
facet normal 0.09801714032956088 0.9951847266721969 0
outer loop
vertex 5.195090322016128 5.98078528040323 0
vertex 5 6 10
vertex 5.195090322016128 5.98078528040323 10
endloop
endfacet
facet normal 0.29028467725446205 0.956940335732209 0
outer loop
vertex 5.38268343236509 5.923879532511286 0
vertex 5.195090322016128 5.98078528040323 0
vertex 5.195090322016128 5.98078528040323 10
endloop
endfacet
facet normal 0.29028467725446205 0.956940335732209 0
outer loop
vertex 5.38268343236509 5.923879532511286 0
vertex 5.195090322016128 5.98078528040323 10
vertex 5.38268343236509 5.923879532511286 10
endloop
endfacet
facet normal 0.4713967368259979 0.8819212643483549 0
outer loop
vertex 5.555570233019602 5.831469612302545 0
vertex 5.38268343236509 5.923879532511286 0
vertex 5.38268343236509 5.923879532511286 10
endloop
endfacet
facet normal 0.4713967368259979 0.8819212643483549 0
outer loop
vertex 5.555570233019602 5.831469612302545 0
vertex 5.38268343236509 5.923879532511286 10
vertex 5.555570233019602 5.831469612302545 10
endloop
endfacet
facet normal 0.6343932841636452 0.7730104533627373 0
outer loop
vertex 5.707106781186547 5.707106781186548 0
vertex 5.555570233019602 5.831469612302545 0
vertex 5.555570233019602 5.831469612302545 10
endloop
endfacet
facet normal 0.6343932841636452 0.7730104533627373 0
outer loop
vertex 5.707106781186547 5.707106781186548 0
vertex 5.555570233019602 5.831469612302545 10
vertex 5.707106781186547 5.707106781186547 10
endloop
endfacet
facet normal 0.7730104533627369 0.6343932841636457 0
outer loop
vertex 5.831469612302545 5.555570233019602 0
vertex 5.707106781186547 5.707106781186548 0
vertex 5.707106781186547 5.707106781186547 10
endloop
endfacet
facet normal 0.7730104533627369 0.6343932841636457 0
outer loop
vertex 5.831469612302545 5.555570233019602 0
vertex 5.707106781186547 5.707106781186547 10
vertex 5.831469612302545 5.555570233019602 10
endloop
endfacet
facet normal 0.8819212643483549 0.4713967368259979 0
outer loop
vertex 5.923879532511286 5.38268343236509 0
vertex 5.831469612302545 5.555570233019602 0
vertex 5.831469612302545 5.555570233019602 10
endloop
endfacet
facet normal 0.8819212643483549 0.4713967368259979 0
outer loop
vertex 5.923879532511286 5.38268343236509 0
vertex 5.831469612302545 5.555570233019602 10
vertex 5.923879532511286 5.38268343236509 10
endloop
endfacet
facet normal 0.9569403357322088 0.29028467725446294 0
outer loop
vertex 5.98078528040323 5.195090322016128 0
vertex 5.923879532511286 5.38268343236509 0
vertex 5.923879532511286 5.38268343236509 10
endloop
endfacet
facet normal 0.9569403357322088 0.29028467725446294 0
outer loop
vertex 5.98078528040323 5.195090322016128 0
vertex 5.923879532511286 5.38268343236509 10
vertex 5.98078528040323 5.195090322016128 10
endloop
endfacet
facet normal 0.9951847266721969 0.09801714032956088 0
outer loop
vertex 6 5 0
vertex 5.98078528040323 5.195090322016128 0
vertex 5.98078528040323 5.195090322016128 10
endloop
endfacet
facet normal 0.9951847266721969 0.09801714032956088 0
outer loop
vertex 6 5 0
vertex 5.98078528040323 5.195090322016128 10
vertex 6 5 10
endloop
endfacet
endsolid csg.js